<svg width="88" height="33" viewBox="0 0 88 33" fill="none" xmlns="http://www.w3.org/2000/svg">
<rect width="33" height="33" rx="16.5" fill="#01BAEF"/>
<path d="M9.3623 25.2441C7.48242 25.2441 5.95654 24.6541 4.78467 23.4741C3.62093 22.286 3.03906 20.7072 3.03906 18.7378V18.3716C3.03906 17.0532 3.29134 15.8773 3.7959 14.8438C4.30859 13.8021 5.02474 12.9924 5.94434 12.4146C6.86393 11.8368 7.88932 11.5479 9.02051 11.5479C10.819 11.5479 12.2065 12.1216 13.1831 13.269C14.1678 14.4165 14.6602 16.04 14.6602 18.1396V19.3359H6.02979C6.1193 20.4264 6.48145 21.2891 7.11621 21.9238C7.75911 22.5586 8.56478 22.876 9.5332 22.876C10.8923 22.876 11.999 22.3267 12.8535 21.228L14.4526 22.7539C13.9237 23.5433 13.2157 24.1577 12.3286 24.5972C11.4497 25.0285 10.4609 25.2441 9.3623 25.2441ZM9.0083 13.9282C8.1945 13.9282 7.53532 14.2131 7.03076 14.7827C6.53434 15.3524 6.21696 16.1458 6.07861 17.1631H11.7305V16.9434C11.6654 15.9505 11.4009 15.2018 10.937 14.6973C10.4731 14.1846 9.83024 13.9282 9.0083 13.9282ZM21.3486 18.396V25H18.2603V7.22656H25.0596C27.0452 7.22656 28.62 7.74333 29.7837 8.77686C30.9556 9.81038 31.5415 11.1776 31.5415 12.8784C31.5415 14.62 30.9678 15.9749 29.8203 16.9434C28.681 17.9118 27.0819 18.396 25.0229 18.396H21.3486ZM21.3486 15.918H25.0596C26.1582 15.918 26.9964 15.6616 27.5742 15.1489C28.152 14.6281 28.4409 13.8794 28.4409 12.9028C28.4409 11.9425 28.1479 11.1776 27.562 10.6079C26.9761 10.0301 26.1704 9.73307 25.145 9.7168H21.3486V15.918ZM33.9092 18.2739C33.9092 16.98 34.1655 15.8162 34.6782 14.7827C35.1909 13.741 35.9111 12.9435 36.8389 12.3901C37.7666 11.8286 38.8327 11.5479 40.0371 11.5479C41.8193 11.5479 43.2638 12.1216 44.3706 13.269C45.4855 14.4165 46.0877 15.9383 46.1772 17.8345L46.1895 18.5303C46.1895 19.8324 45.9372 20.9961 45.4326 22.0215C44.9362 23.0469 44.2201 23.8403 43.2842 24.4019C42.3564 24.9634 41.2822 25.2441 40.0615 25.2441C38.1979 25.2441 36.7046 24.6257 35.5815 23.3887C34.4666 22.1436 33.9092 20.4875 33.9092 18.4204V18.2739ZM36.8755 18.5303C36.8755 19.8893 37.1562 20.9554 37.7178 21.7285C38.2793 22.4935 39.0605 22.876 40.0615 22.876C41.0625 22.876 41.8397 22.4854 42.3931 21.7041C42.9546 20.9229 43.2354 19.7795 43.2354 18.2739C43.2354 16.9393 42.9465 15.8813 42.3687 15.1001C41.799 14.3188 41.0218 13.9282 40.0371 13.9282C39.0687 13.9282 38.2996 14.3148 37.73 15.0879C37.1603 15.8529 36.8755 17.0003 36.8755 18.5303ZM60.3008 20.9106L62.4004 11.792H65.2935L61.6924 25H59.251L56.4189 15.9302L53.6357 25H51.1943L47.5811 11.792H50.4741L52.6104 20.813L55.3203 11.792H57.5542L60.3008 20.9106ZM73.0938 25.2441C71.2139 25.2441 69.688 24.6541 68.5161 23.4741C67.3524 22.286 66.7705 20.7072 66.7705 18.7378V18.3716C66.7705 17.0532 67.0228 15.8773 67.5273 14.8438C68.04 13.8021 68.7562 12.9924 69.6758 12.4146C70.5954 11.8368 71.6208 11.5479 72.752 11.5479C74.5505 11.5479 75.938 12.1216 76.9146 13.269C77.8993 14.4165 78.3916 16.04 78.3916 18.1396V19.3359H69.7612C69.8507 20.4264 70.2129 21.2891 70.8477 21.9238C71.4906 22.5586 72.2962 22.876 73.2646 22.876C74.6237 22.876 75.7305 22.3267 76.585 21.228L78.1841 22.7539C77.6551 23.5433 76.9471 24.1577 76.0601 24.5972C75.1812 25.0285 74.1924 25.2441 73.0938 25.2441ZM72.7397 13.9282C71.9259 13.9282 71.2668 14.2131 70.7622 14.7827C70.2658 15.3524 69.9484 16.1458 69.8101 17.1631H75.4619V16.9434C75.3968 15.9505 75.1323 15.2018 74.6685 14.6973C74.2046 14.1846 73.5617 13.9282 72.7397 13.9282ZM87.6201 14.502C87.2295 14.4368 86.8267 14.4043 86.4116 14.4043C85.0526 14.4043 84.137 14.9251 83.665 15.9668V25H80.6987V11.792H83.5308L83.604 13.269C84.3201 12.1216 85.313 11.5479 86.5825 11.5479C87.0057 11.5479 87.3556 11.6048 87.6323 11.7188L87.6201 14.502Z" fill="#FBFBFF"/>
</svg>
